<svg id="Layer_2" data-name="Layer 2" xmlns="http://www.w3.org/2000/svg" viewBox="0 0 400 300" width="406" height="306" class="illustration styles_illustrationTablet__1DWOa"><title>PP</title><path d="M113.85,96.54c-.1-2.94-3.19-4.5-3.3-7.11a8,8,0,0,1,.4-2c.62-2.83-3.35-4.77-5.2-2.51a16.08,16.08,0,0,0-3.36,11.73C103.43,103.11,114.12,104.17,113.85,96.54Z" fill="#cfe217"></path><path d="M192.62,289.52,20.12,187.57c-5.49-3.08-10.2-8.15-4.85-11.46L188.39,76.34c2.6-1.61,6.54-2.66,9.18-1.13L378.65,180.3c5.49,3.19,6.48,12.1,1,15.29L215.36,289.36A22.94,22.94,0,0,1,192.62,289.52Z" fill="#ff9f9f"></path><path d="M93.22,157.92s-3.7,102.7,105,102.7c109.4,0,106.35-93,105-102.7S93.22,157.92,93.22,157.92Z" fill="#68e1fd"></path><path d="M93.22,157.92s-3.7,102.7,105,102.7c109.4,0,106.35-93,105-102.7S93.22,157.92,93.22,157.92Z" fill="#ffbc2f"></path><path d="M161.44,226.41c-12.58-21-19.28-45.55-22.33-70.35-26.74,1-45.89,1.86-45.89,1.86s-3.58,99.42,99.84,102.62A109.05,109.05,0,0,1,161.44,226.41Z" fill="#ea9b0f"></path><ellipse cx="198.2" cy="157.92" rx="104.99" ry="60.19" fill="#ffd58a"></ellipse><ellipse cx="198.11" cy="157.92" rx="95.91" ry="52.89" fill="#093e3e" opacity="0.66"></ellipse><path d="M214.51,92.59c-1.14-.86-2.31-1.67-3.55-2.43-.8-.49-1.63-1-2.47-1.39-2.46,18.85-19.24,33.4-35.8,41.26a60.49,60.49,0,0,0,2,12.53A74.28,74.28,0,0,0,214.51,92.59ZM179.3,135.33c-2.91.63-3.88-3.89-1-4.52S182.2,134.7,179.3,135.33Z" fill="#f49a22"></path><path d="M234.32,124a69.9,69.9,0,0,0-5.49-14.19,53.56,53.56,0,0,0-7.78-11.22,82.26,82.26,0,0,1-43.75,51.34,38.15,38.15,0,0,0,2.89,5.21,96.21,96.21,0,0,0,40.59-39.53c2.45-4.48,9.09-.16,6.66,4.29a103.29,103.29,0,0,1-41.89,41.4,26.73,26.73,0,0,0,3.31,2.46,163.05,163.05,0,0,0,26.59-14.44C224.41,143.09,229.18,133.34,234.32,124Z" fill="#f49a22"></path><path d="M200.75,86.12c-.61-.1-1.22-.18-1.85-.23a18.56,18.56,0,0,0-7.18.8c-6,1.94-10.29,7.3-12.87,12.31a59,59,0,0,0-6,22.1C186.42,113.76,199.37,101.82,200.75,86.12Z" fill="#f49a22"></path><path d="M219,152.43a149.15,149.15,0,0,1-24.68,13.92c5.35,1.84,11.81,2.18,19.49.42,20.06-4.57,24.2-20.45,22-35.82C231.31,139,226.62,146.94,219,152.43Z" fill="#f49a22"></path><path d="M186.6,95.48c-5,1.08-3.31,8.82,1.68,7.74S191.59,94.4,186.6,95.48Z" fill="#fee300"></path><path d="M190,122.52c-2.91.63-1.93,5.15,1,4.52S192.89,121.89,190,122.52Z" fill="#fee300"></path><path d="M180.18,105.15c-2.91.63-1.93,5.15,1,4.52S183.09,104.52,180.18,105.15Z" fill="#fee300"></path><path d="M194,86.51c-2.91.63-1.93,5.15,1,4.52S196.9,85.88,194,86.51Z" fill="#fee300"></path><path d="M199.84,113.53c-2.91.63-1.93,5.15,1,4.52S202.75,112.9,199.84,113.53Z" fill="#fee300"></path><path d="M209.13,95.59c-2.91.63-1.93,5.15,1,4.52S212,95,209.13,95.59Z" fill="#fee300"></path><path d="M184.67,146.19c-2.91.63-1.93,5.15,1,4.52S187.58,145.56,184.67,146.19Z" fill="#fee300"></path><path d="M196.44,138.42c-2.91.63-1.93,5.15,1,4.52S199.35,137.79,196.44,138.42Z" fill="#fee300"></path><path d="M213.46,119.36c-2.91.63-1.93,5.15,1,4.52S216.37,118.73,213.46,119.36Z" fill="#fee300"></path><path d="M221.32,103.66c-2.91.63-1.93,5.15,1,4.52S224.23,103,221.32,103.66Z" fill="#fee300"></path><path d="M208.49,88.78a26.41,26.41,0,0,0-7.73-2.66c-1.39,15.7-14.33,27.64-27.93,35,0,.36-.07.73-.09,1.08a66.47,66.47,0,0,0,0,7.86C189.25,122.17,206,107.63,208.49,88.78Z" fill="#68e1fd"></path><path d="M221.05,98.58a47.27,47.27,0,0,0-6.55-6,74.28,74.28,0,0,1-39.85,50,47.46,47.46,0,0,0,2.64,7.36A82.26,82.26,0,0,0,221.05,98.58Z" fill="#68e1fd"></path><path d="M227.44,119.89c2.43-4.45-4.21-8.77-6.66-4.29a96.21,96.21,0,0,1-40.59,39.53,30.54,30.54,0,0,0,5.36,6.16A103.29,103.29,0,0,0,227.44,119.89Z" fill="#68e1fd"></path><path d="M178.32,130.81c-2.91.63-1.93,5.15,1,4.52S181.23,130.18,178.32,130.81Z" fill="#fee300"></path><path d="M234.32,124c-5.14,9.34-9.9,19.09-18.87,25.32a163.05,163.05,0,0,1-26.59,14.44,26.17,26.17,0,0,0,5.44,2.6A149.15,149.15,0,0,0,219,152.43c7.64-5.5,12.33-13.41,16.77-21.48A62.17,62.17,0,0,0,234.32,124Z" fill="#fee300"></path><path d="M240.5,160.21c-9.36-6.6-17.76-13.82-24.9-22.62q-.67,1.46-1.27,3c1,1.35,2,2.58,2.89,3.61a69,69,0,0,0,7.75,7.77c5.94,5.14,12.56,9.44,19,14,6.89,4.88,14.64,10.56,19.48,17.78q.68-.7,1.32-1.44C260.7,172.4,248.5,165.85,240.5,160.21Z" fill="#ffbc2f"></path><path d="M233.8,137.71c6.85,6,14.31,11.28,21.52,16.85,5.73,4.42,11.89,9.54,16.56,15.45a69.67,69.67,0,0,0,4.59-24,51.09,51.09,0,0,0-6.63-26.44,27.94,27.94,0,0,0-8.82-9.73,19.06,19.06,0,0,0-6.88-2.77c-6.38-1.16-12.85,1.6-17.62,4.88a59.06,59.06,0,0,0-14.07,13.94,24.59,24.59,0,0,0,1.89,2.48A94.1,94.1,0,0,0,233.8,137.71Z" fill="#ffbc2f"></path><path d="M216.62,159.77a72.52,72.52,0,0,1-5.83-6.42c-2.33,15.64,3.17,31,24.41,36.88,7.61,2.1,14,1.68,19.26-.44-5.52-7.77-14.37-13.09-22.19-18.17A101.91,101.91,0,0,1,216.62,159.77Z" fill="#ffbc2f"></path><path d="M241.52,155.76c-7.29-5.52-14.57-11.16-21-17.72-1.14-1.17-2.28-2.42-3.35-3.72q-.85,1.61-1.61,3.28c7.14,8.8,15.54,16,24.9,22.62,8,5.64,20.2,12.19,24.22,22a35.51,35.51,0,0,0,2.51-3.29C261.57,169.24,249.18,161.56,241.52,155.76Z" fill="#ff7384"></path><path d="M258.71,187.57c-5.66-9.28-17.55-16-25.55-21.62-6.38-4.5-12.74-9.19-18.12-14.88-1-1.08-2.06-2.22-3.07-3.41a52.74,52.74,0,0,0-1.18,5.7,72.52,72.52,0,0,0,5.83,6.42,101.91,101.91,0,0,0,15.64,11.86c7.82,5.08,16.67,10.4,22.19,18.17A24.68,24.68,0,0,0,258.71,187.57Z" fill="#ff7384"></path><path d="M219.41,130.43c8.35,11.28,19.21,19.31,30.59,27.32,7.15,5,14.75,10.46,19.34,17.75a50.14,50.14,0,0,0,2.55-5.49c-4.67-5.91-10.83-11-16.56-15.45-7.21-5.57-14.67-10.84-21.52-16.85a94.1,94.1,0,0,1-9.47-9.35,24.59,24.59,0,0,1-1.89-2.48q-1.46,2-2.74,4Z" fill="#cc3637"></path><path d="M219.41,130.43q-1.15,1.89-2.2,3.88c1.07,1.31,2.21,2.55,3.35,3.72,6.39,6.56,13.67,12.2,21,17.72,7.66,5.8,20.05,13.48,25.72,23.2.75-1.11,1.45-2.27,2.1-3.46-4.59-7.29-12.19-12.71-19.34-17.75C238.62,149.74,227.76,141.71,219.41,130.43Z" fill="#cc3637"></path><path d="M225,151.93a69,69,0,0,1-7.75-7.77c-.86-1-1.93-2.27-2.89-3.61q-.69,1.73-1.28,3.5a74,74,0,0,0,11.39,12.76c5.08,4.42,10.92,7.87,16.53,11.55,7.55,5,14.73,10.46,19.79,17.74a28.74,28.74,0,0,0,2.66-2.41c-4.84-7.22-12.59-12.89-19.48-17.78C237.53,161.37,230.91,157.07,225,151.93Z" fill="#cc3637"></path><path d="M212,147.66c1,1.2,2.06,2.34,3.07,3.41,5.38,5.69,11.74,10.39,18.12,14.88,8,5.64,19.89,12.33,25.55,21.62q1.05-.69,2-1.47c-5.06-7.27-12.24-12.78-19.79-17.74-5.61-3.68-11.46-7.13-16.53-11.55A74,74,0,0,1,213,144.06Q212.45,145.84,212,147.66Z" fill="#cc3637"></path><path d="M270.7,149.23a4,4,0,0,0-1.86-3.43,3.7,3.7,0,0,0-.71-.33,7.3,7.3,0,0,0,.06-1.35c-.1-1.77-2.3-3-3.69-1.6a7.12,7.12,0,0,0-1.39,2,3.71,3.71,0,0,0-3.82,1.38,3.26,3.26,0,0,0,1,4.48,3.4,3.4,0,0,0,1.07.5c0,1.46.43,3.22,2,3.67s3.05-.79,3.76-2.06a5.28,5.28,0,0,0,.3-.63A2.75,2.75,0,0,0,270.7,149.23Z" fill="#fff7e9"></path><path d="M229.84,174a3.53,3.53,0,0,0-2.77-3.63,5.91,5.91,0,0,0-1.44-.18c.43-1.87.31-3.78-1.92-4.17-1.76-.31-2.71,1-3.24,2.61a4.75,4.75,0,0,0-.65-.46c-1.46-.85-3.62-1-4.59.65-1.35,2.35,1,4.31,3.38,5.38a3.76,3.76,0,0,0-.11,3.34,3.69,3.69,0,0,0,3.94,1.91,4.19,4.19,0,0,0,3.14-2.91c0-.08,0-.15.06-.23C227.66,176.6,229.57,176.25,229.84,174Z" fill="#fff7e9"></path><path d="M246,182.87c.45-1.63-.56-2.83-1.88-3.49a11,11,0,0,0-.6-2,2.19,2.19,0,0,0-3-.85l-.09.06a1.92,1.92,0,0,0-1.21,1.4l-.21.82h0a2.48,2.48,0,0,0-2.38,2.67,2.71,2.71,0,0,0,1.91,2.17,5,5,0,0,0,.81,2.26c.88,1.26,2.9,1.64,3.77.08a10.25,10.25,0,0,0,.54-1.14A2.71,2.71,0,0,0,246,182.87Z" fill="#fff7e9"></path><path d="M257.84,125.47a6.17,6.17,0,0,0-2.87-5.31,5.72,5.72,0,0,0-1.09-.51,11.28,11.28,0,0,0,.09-2.09c-.15-2.74-3.55-4.66-5.7-2.47a11,11,0,0,0-2.15,3.14,5.73,5.73,0,0,0-5.91,2.13,5,5,0,0,0,1.49,6.93,5.25,5.25,0,0,0,1.66.77c0,2.25.66,5,3.09,5.67s4.72-1.23,5.81-3.18a8.16,8.16,0,0,0,.46-1A4.25,4.25,0,0,0,257.84,125.47Z" fill="#fff7e9"></path><path d="M136.7,141.26c1.54-2.82,3-5.69,4.32-8.63a4.19,4.19,0,0,1,7.6-.35,23.06,23.06,0,0,0,4.73,6.37,57.77,57.77,0,0,0,4.79-9.1c.95-2.27,4.1-3.74,6.24-2a72.62,72.62,0,0,0,10.55,7.33,73.64,73.64,0,0,0,5.94-14.22,3.46,3.46,0,0,1,.65-1.21,51.76,51.76,0,0,0-8.27-6.87,30.88,30.88,0,0,0-13.49-5.36,21.06,21.06,0,0,0-8.17.6c-6.9,1.95-12,7.84-15.12,13.41a61.75,61.75,0,0,0-5.58,13.62l.06.06Z" fill="#fee300"></path><path d="M170.88,180.56c-12.43,2.27-25.37,2.7-37.67-.13.09.19.18.37.27.56,5,4.09,11.62,6.7,17.21,8.79a37.93,37.93,0,0,0,6.12,1.67,32.66,32.66,0,0,1,35.27-1.58c5-5.54,7.31-12.72,7.81-20.34C191.89,175.94,181,178.73,170.88,180.56Z" fill="#fee300"></path><path d="M183.35,196.33c.53-.26,1.05-.52,1.55-.79A24.3,24.3,0,0,0,172,194C175.8,194.71,179.57,195.55,183.35,196.33Z" fill="#fee300"></path><path d="M128.85,164.94c.29,2,.67,4.07,1.15,6,12,3.84,24.75,3.87,37.17,1.84,10.77-1.76,26-4.47,32.28-14.64-.22-1.65-.51-3.29-.84-4.92-10.57,6-22.59,9.31-34.58,11.39C152.57,166.65,140.09,168,128.85,164.94Z" fill="#fee300"></path><path d="M163.72,156.33c11.42-2.06,22.83-5.26,32.68-11.35a77.87,77.87,0,0,0-3.7-9.34c-.68-1.44-1.43-2.85-2.22-4.24l-3.62-2.64a82.37,82.37,0,0,1-6.95,14,4.13,4.13,0,0,1-4.81,1.51,82.05,82.05,0,0,1-11.5-6.88,66.51,66.51,0,0,1-6,9.61,4.21,4.21,0,0,1-5.75,1,31.67,31.67,0,0,1-6.4-5.73q-2.18,4.22-4.61,8.29c-1.42,2.37-4.85,2.16-6.53.31l-5.47-6c-.11.81-.21,1.61-.29,2.41a75.41,75.41,0,0,0-.38,8.73C139.26,160.21,152.17,158.41,163.72,156.33Z" fill="#fee300"></path><path d="M140.84,150.59q2.44-4.07,4.61-8.29a31.67,31.67,0,0,0,6.4,5.73,4.21,4.21,0,0,0,5.75-1,66.51,66.51,0,0,0,6-9.61,82.05,82.05,0,0,0,11.5,6.88,4.13,4.13,0,0,0,4.81-1.51,82.37,82.37,0,0,0,6.95-14l3.62,2.64a58.11,58.11,0,0,0-8.94-11.91,3.46,3.46,0,0,0-.65,1.21,73.64,73.64,0,0,1-5.94,14.22,72.62,72.62,0,0,1-10.55-7.33c-2.14-1.78-5.29-.31-6.24,2a57.77,57.77,0,0,1-4.79,9.1,23.06,23.06,0,0,1-4.73-6.37,4.19,4.19,0,0,0-7.6.35c-1.33,2.94-2.78,5.81-4.32,8.63L131,135l-.06-.06a73.05,73.05,0,0,0-2.06,10l5.47,6C136,152.75,139.42,153,140.84,150.59Z" fill="#e24e47"></path><path d="M163.72,156.33c-11.55,2.08-24.46,3.89-35.55-.3a71.67,71.67,0,0,0,.68,8.9c11.24,3.07,23.72,1.72,35.17-.27,12-2.08,24-5.38,34.58-11.39a78.63,78.63,0,0,0-2.2-8.29C186.55,151.07,175.14,154.27,163.72,156.33Z" fill="#ff7384"></path><path d="M167.16,172.82c-12.42,2-25.19,2-37.17-1.84a52.35,52.35,0,0,0,3.21,9.45c12.3,2.83,25.24,2.4,37.67.13,10.09-1.84,21-4.62,29-11a57.27,57.27,0,0,0-.45-11.34C193.14,168.35,177.94,171.06,167.16,172.82Z" fill="#e24e47"></path><path d="M167.38,193.08c1.55.27,3.09.56,4.63.87a24.3,24.3,0,0,1,12.89,1.58,28.08,28.08,0,0,0,7.18-5.66,32.66,32.66,0,0,0-35.27,1.58C160.29,192.13,163.83,192.47,167.38,193.08Z" fill="#f49a22"></path><path d="M147.58,116c-5.23.93-3.8,9.06,1.45,8.13S152.82,115.1,147.58,116Z" fill="#16a79e"></path><path d="M165.53,112.84c-5.23.93-3.8,9.06,1.45,8.13S170.77,111.91,165.53,112.84Z" fill="#16a79e"></path><path d="M182.33,150.64c1.92-2.4,3.76-4.85,5.51-7.39a4,4,0,0,1,7.21.94,22,22,0,0,0,3.38,6.78,55.22,55.22,0,0,0,6-7.76c1.27-2,4.48-2.83,6.2-.8a69.41,69.41,0,0,0,8.7,8.66,70.38,70.38,0,0,0,8-12.39,3.3,3.3,0,0,1,.82-1,49.47,49.47,0,0,0-6.64-7.85,29.51,29.51,0,0,0-11.8-7.3,20.13,20.13,0,0,0-7.79-.8c-6.82.68-12.58,5.38-16.47,10.09a59,59,0,0,0-7.53,11.89l0,.07Z" fill="#cfe217"></path><path d="M185,205.82l.72.09a31.24,31.24,0,0,1,40.64-.25c5.64-4.37,9-10.75,10.76-17.84-8.6,4.7-19.35,5.49-29.15,5.53-12.08.05-24.33-1.71-35.43-6.43C174.46,194.58,178.43,201.31,185,205.82Z" fill="#cfe217"></path><path d="M212.41,207a23.06,23.06,0,0,0-12.13-.12C204.32,207,208.36,207,212.41,207Z" fill="#cfe217"></path><path d="M171,171.61c-.07,2-.05,3.94.07,5.88,10.64,5.62,22.64,7.78,34.67,8,10.43.14,25.19.14,32.82-8.37.07-1.59.07-3.18,0-4.77-10.95,3.88-22.81,5-34.45,4.93C193,177.2,181,176.38,171,171.61Z" fill="#cfe217"></path><path d="M205.24,169.34c11.09,0,22.36-1.13,32.65-5.21a74.43,74.43,0,0,0-1.92-9.4c-.4-1.47-.87-2.92-1.38-4.36l-3-3.09a78.73,78.73,0,0,1-8.88,12,4,4,0,0,1-4.78.62,78.42,78.42,0,0,1-9.67-8.4,63.57,63.57,0,0,1-7.23,8,4,4,0,0,1-5.58,0,30.27,30.27,0,0,1-5.07-6.46q-2.75,3.6-5.73,7c-1.73,2-4.93,1.22-6.2-.8l-4.14-6.57c-.24.74-.47,1.48-.68,2.22a72.08,72.08,0,0,0-1.82,8.15C181.57,168.91,194,169.37,205.24,169.34Z" fill="#cfe217"></path><path d="M184.67,160.12q3-3.42,5.73-7a30.27,30.27,0,0,0,5.07,6.46,4,4,0,0,0,5.58,0,63.57,63.57,0,0,0,7.23-8,78.42,78.42,0,0,0,9.67,8.4,4,4,0,0,0,4.78-.62,78.73,78.73,0,0,0,8.88-12l3,3.09a55.54,55.54,0,0,0-6.42-12.7,3.3,3.3,0,0,0-.82,1,70.38,70.38,0,0,1-8,12.39,69.41,69.41,0,0,1-8.7-8.66c-1.72-2-4.93-1.18-6.2.8a55.22,55.22,0,0,1-6,7.76,22,22,0,0,1-3.38-6.78,4,4,0,0,0-7.21-.94c-1.75,2.54-3.59,5-5.51,7.39L178,143.75l0-.07a69.82,69.82,0,0,0-3.61,9.06l4.14,6.57C179.75,161.33,182.94,162.11,184.67,160.12Z" fill="#e24e47"></path><path d="M205.24,169.34c-11.22,0-23.67-.44-33.4-6.23a68.5,68.5,0,0,0-.85,8.49c10.06,4.77,22,5.58,33.14,5.63,11.63,0,23.5-1,34.45-4.93a75.15,75.15,0,0,0-.69-8.17C227.6,168.21,216.33,169.32,205.24,169.34Z" fill="#fff7e9"></path><path d="M205.72,185.45c-12-.17-24-2.33-34.67-8a50,50,0,0,0,1.44,9.43c11.1,4.72,23.35,6.48,35.43,6.43,9.8,0,20.55-.83,29.15-5.53a54.74,54.74,0,0,0,1.47-10.75C230.92,185.58,216.16,185.59,205.72,185.45Z" fill="#e24e47"></path><path d="M200.28,206.88a23.06,23.06,0,0,1,12.13.12c4.05,0,8.1-.07,12.14-.09q.92-.59,1.77-1.25a31.24,31.24,0,0,0-40.64.25C190.53,206.45,195.4,206.74,200.28,206.88Z" fill="#ffe094"></path><path d="M196.8,128.73c-5.08,0-5.09,7.89,0,7.89S201.88,128.73,196.8,128.73Z" fill="#ffe094"></path><path d="M214.22,128.73c-5.08,0-5.09,7.89,0,7.89S219.31,128.73,214.22,128.73Z" fill="#ffe094"></path><path d="M222.52,210.06s5.6-12.48.83-19.5c0,0-3.67-4.4-7.72-4.45,0,0,2.34,10.41-1.81,9.8s-2-11-2-11-5.13-4.79-9.59-3.77S204,191,200.61,190s-2-9.75-5.71-10.07a75,75,0,0,0-10,.26s-1.54,10.18,2,10.93,8.54.3,6.59,2.85-9,1.36-9,1.36.59,5.46,3.28,7.36,15-5.71,13.52-.65-10.69,4.38-10.69,4.38,5.68,5.58,11.5,7.52S222.52,210.06,222.52,210.06Z" fill="#8ccc00"></path><path d="M222.27,212.26l.37-.1a62.71,62.71,0,0,0-5.86-6.53.65.65,0,0,0,.11-.14,26.47,26.47,0,0,0,2.69-11.62c0-.83-1.29-.94-1.29-.11a25.59,25.59,0,0,1-2.46,11,89.34,89.34,0,0,0-7.65-6.38,47.41,47.41,0,0,0-1.29-9c-.2-.81-1.47-.57-1.27.24a46.09,46.09,0,0,1,1.21,7.8c-4.16-3-8.54-5.78-12.93-8.38q-.82-3-1.87-6c-.28-.78-1.44-.21-1.16.57.52,1.47,1,3,1.42,4.45q-2.5-1.47-5-2.88c-.72-.41-1.45.65-.73,1.07,5.42,3.1,11.05,6.36,16.41,10-1.85.51-3.7,1-5.56,1.49-2.17.54-4.93,1.61-7.18,1-.8-.23-1.24,1-.44,1.22,1.92.55,3.73,0,5.64-.39,3-.66,5.87-1.48,8.78-2.29l.11-.05a93.68,93.68,0,0,1,10.76,8.62,48.8,48.8,0,0,1-14.69,4.17c-.83.1-.58,1.37.24,1.27a49.8,49.8,0,0,0,15.44-4.47,61.32,61.32,0,0,1,5.31,5.91A3.14,3.14,0,0,1,222.27,212.26Z" fill="#06577a"></path><path d="M234.17,204.78s10.54-8.71,9.38-17.12c0,0-1.35-5.57-5-7.41,0,0-2.51,10.37-6,8s3-10.74,3-10.74-2.48-6.56-6.93-7.63-2.7,9.6-5.32,7.18,2.51-9.64-.66-11.56a75,75,0,0,0-9.12-4.22s-5.88,8.45-3,10.7,7.52,4.05,4.65,5.47-8.7-2.78-8.7-2.78-1.89,5.15-.32,8.05,16,1.52,12.41,5.4-11.52-.81-11.52-.81,2.63,7.52,7,11.83S234.17,204.78,234.17,204.78Z" fill="#7da50e"></path><path d="M216.28,182.69c2.94.71,5.92,1.27,8.89,1.83h.12A93.69,93.69,0,0,1,231.12,197a48.8,48.8,0,0,1-15-2.77c-.79-.28-1.13,1-.35,1.24a49.8,49.8,0,0,0,15.83,2.83,58.55,58.55,0,0,1,2.7,10.74l1.24-.32a60.36,60.36,0,0,0-2.84-11.1.66.66,0,0,0,.16-.08,26.47,26.47,0,0,0,7.55-9.23c.37-.74-.74-1.41-1.11-.67a25.59,25.59,0,0,1-7.05,8.73,89.33,89.33,0,0,0-4-9.11,47.43,47.43,0,0,0,2.84-8.67c.18-.81-1.06-1.16-1.24-.35a46.1,46.1,0,0,1-2.37,7.54c-2.4-4.55-5.1-9-7.88-13.23q.6-3.07,1-6.17c.1-.82-1.2-.82-1.29,0-.18,1.55-.42,3.08-.7,4.61q-1.6-2.42-3.19-4.78c-.46-.69-1.59-.06-1.13.63,3.49,5.18,7.09,10.6,10.29,16.23-1.88-.36-3.77-.72-5.64-1.13-2.19-.48-5.14-.74-6.86-2.31-.61-.56-1.54.34-.93.9C212.52,181.89,214.37,182.23,216.28,182.69Z" fill="#06577a"></path><path d="M269.43,196.32c1.88-1.05,3.92-2,5.9-3.1a6.91,6.91,0,0,0-.15-2.49s-9.4,5-9.92.89,10-4.91,10-4.91,3.23-6.23,1.06-10.25-9,4.39-8.89.82,8.85-4.56,8.17-8.21a75,75,0,0,0-2.94-9.61s-10.22,1.25-10,4.89,2,8.3-1,7.11-3.73-8.34-3.73-8.34-5.1,2-6.21,5.13,9.53,12.91,4.26,12.85-7.09-9.12-7.09-9.12-3.85,7-4.16,13.09c-.28,5.47,7.25,16.09,8.87,18.29A94.28,94.28,0,0,0,269.43,196.32Z" fill="#8bb70f"></path><path d="M257,197.55a62.31,62.31,0,0,1-3.7,5.93l2-.71q1.56-2.35,2.92-4.85a.66.66,0,0,0,.16.06,26.52,26.52,0,0,0,7.23.32c1.21-.61,2.42-1.25,3.62-1.92a25.56,25.56,0,0,1-10.38.36,89.35,89.35,0,0,0,4.09-9.09,47.42,47.42,0,0,0,8.35-3.67c.72-.41.16-1.57-.57-1.16a46.1,46.1,0,0,1-7.19,3.26c1.79-4.82,3.27-9.78,4.6-14.7q2.69-1.6,5.24-3.4c.68-.48-.18-1.44-.86-1-1.27.9-2.58,1.74-3.9,2.56q.74-2.8,1.43-5.57c.2-.8-1-1.23-1.22-.42-1.53,6.06-3.16,12.35-5.23,18.49-1-1.64-2-3.29-2.92-5-1.1-1.95-2.88-4.32-2.86-6.66,0-.83-1.28-.93-1.29-.09,0,2,1,3.6,1.89,5.33,1.43,2.67,3,5.26,4.56,7.85a.63.63,0,0,0,.08.09,93.68,93.68,0,0,1-5.42,12.67,48.8,48.8,0,0,1-8-13c-.32-.77-1.48-.2-1.16.57A49.8,49.8,0,0,0,257,197.55Z" fill="#06577a"></path><path d="M241.34,207.11q3.47-1,6.93-2c3.79-1.83,8.12-4.77,9.47-9,0,0,1.18-5.61-1.28-8.82,0,0-6.72,8.28-8.81,4.65s7.35-8.4,7.35-8.4.58-7-3-9.86-6.56,7.5-7.89,4.19,6.41-7.62,4.37-10.72a75,75,0,0,0-6.42-7.73s-8.94,5.1-7.32,8.36,5,6.89,1.84,6.94-6.66-6.25-6.66-6.25-3.92,3.84-3.75,7.13,13.77,8.24,8.88,10.21S225,180,225,180s-.86,7.91,1.21,13.68C228,198.79,238.75,205.54,241.34,207.11Z" fill="#c8ef25"></path><path d="M242.34,200.51a62.52,62.52,0,0,1-1.07,6.62l1.38-.41q.65-3.14,1-6.35a.65.65,0,0,0,.17,0,26.47,26.47,0,0,0,10.79-5.09c.65-.51-.06-1.59-.71-1.08a25.59,25.59,0,0,1-10.12,4.85,89.35,89.35,0,0,0,.27-10,47.41,47.41,0,0,0,6.29-6.61c.51-.65-.46-1.51-1-.85a46.09,46.09,0,0,1-5.38,5.79c-.21-5.13-.75-10.28-1.43-15.34q1.86-2.51,3.53-5.16c.44-.7-.73-1.26-1.16-.56-.83,1.32-1.71,2.6-2.61,3.86-.27-1.92-.55-3.82-.83-5.69-.12-.82-1.41-.74-1.29.09.93,6.18,1.85,12.62,2.31,19.08-1.55-1.13-3.09-2.27-4.61-3.44-1.77-1.37-4.32-2.88-5.2-5-.31-.77-1.54-.36-1.23.41.75,1.85,2.28,3,3.8,4.19,2.35,1.91,4.8,3.69,7.24,5.48l.11.05a93.68,93.68,0,0,1-.11,13.79,48.8,48.8,0,0,1-12.37-9c-.59-.59-1.44.39-.85,1A49.8,49.8,0,0,0,242.34,200.51Z" fill="#06577a"></path><path d="M102.63,162.91s5,46.44,96,45.38c0,0,85.95,4.28,95.4-50.38h9.18s2.83,57-101.32,60.19C96.76,221.32,93.6,163,93.6,163Z" fill="#ffd58a"></path><path d="M103.66,155.81c-1.36-2.61-4.81-2.69-6-5a8,8,0,0,1-.5-2c-.66-2.82-5.07-2.86-5.77,0a16.08,16.08,0,0,0,2,12C97.09,166.22,107.19,162.58,103.66,155.81Z" fill="#cfe217"></path><path d="M104.34,147.44c-1.36-2.61-4.81-2.69-6-5a8,8,0,0,1-.5-2c-.66-2.82-5.07-2.86-5.77,0a16.08,16.08,0,0,0,2,12C97.76,157.85,107.86,154.21,104.34,147.44Z" fill="#5d8035"></path><path d="M104.85,139.07c-1.36-2.61-4.81-2.69-6-5a8,8,0,0,1-.5-2c-.66-2.82-5.07-2.86-5.77,0a16.08,16.08,0,0,0,2,12C98.27,149.48,108.37,145.84,104.85,139.07Z" fill="#cfe217"></path><path d="M106.1,131.16c-1.19-2.69-4.64-3-5.71-5.37a8,8,0,0,1-.38-2c-.48-2.86-4.88-3.17-5.76-.39a16.08,16.08,0,0,0,1.26,12.14C98.88,141.13,109.19,138.14,106.1,131.16Z" fill="#5d8035"></path><path d="M107.41,122.82c-.85-2.82-4.23-3.53-5-6a8,8,0,0,1-.13-2c-.12-2.9-4.45-3.75-5.67-1.1a16.08,16.08,0,0,0-.25,12.2C99,131.82,109.62,130.13,107.41,122.82Z" fill="#cfe217"></path><path d="M109,115.23c-.57-2.89-3.86-3.94-4.38-6.5a8,8,0,0,1,.07-2c.16-2.89-4.06-4.18-5.53-1.66a16.08,16.08,0,0,0-1.46,12.12C99.76,123.35,110.48,122.72,109,115.23Z" fill="#5d8035"></path><path d="M111.85,106.94c-.3-2.93-3.48-4.27-3.76-6.88a8,8,0,0,1,.26-2c.43-2.87-3.66-4.53-5.36-2.15a16.08,16.08,0,0,0-2.57,11.93C101.89,114.18,112.63,114.53,111.85,106.94Z" fill="#cfe217"></path><path d="M117.78,89.36c-.42-2.92-3.65-4.13-4-6.72a8,8,0,0,1,.18-2c.32-2.88-3.84-4.38-5.44-1.94a16.08,16.08,0,0,0-2.1,12C108.12,97,118.85,96.92,117.78,89.36Z" fill="#5d8035"></path><path d="M122.29,82.33c-.1-2.94-3.19-4.5-3.3-7.11a8,8,0,0,1,.4-2c.62-2.83-3.35-4.77-5.2-2.51a16.08,16.08,0,0,0-3.36,11.73C111.88,88.89,122.56,90,122.29,82.33Z" fill="#cfe217"></path><path d="M126.35,75.4c.4-2.92-2.38-5-2-7.57a8,8,0,0,1,.73-1.91c1.09-2.69-2.5-5.26-4.7-3.35a16.08,16.08,0,0,0-5.29,11C115,80.1,125.32,83,126.35,75.4Z" fill="#5d8035"></path><path d="M133.08,68.43c.55-2.89-2.11-5.09-1.63-7.67a8,8,0,0,1,.83-1.87c1.23-2.62-2.21-5.39-4.51-3.6A16.08,16.08,0,0,0,121.88,66C121.46,72.52,131.64,75.93,133.08,68.43Z" fill="#cfe217"></path><path d="M139.44,62.72c1-2.78-1.32-5.35-.47-7.83a8,8,0,0,1,1.1-1.72c1.61-2.41-1.37-5.66-3.92-4.24a16.08,16.08,0,0,0-7.42,9.69C127.35,65,136.9,69.92,139.44,62.72Z" fill="#5d8035"></path><path d="M147.39,57c1.14-2.72-1-5.42,0-7.84a8,8,0,0,1,1.2-1.65c1.75-2.31-1-5.73-3.67-4.46a16.08,16.08,0,0,0-8,9.25C135.18,58.58,144.44,64,147.39,57Z" fill="#cfe217"></path><path d="M154.51,52.21c1.73-2.39.24-5.51,1.77-7.64a8,8,0,0,1,1.54-1.34c2.23-1.85.28-5.82-2.56-5.17a16.08,16.08,0,0,0-9.86,7.2C142.26,51,150,58.4,154.51,52.21Z" fill="#5d8035"></path><path d="M163.66,49.59c1.58-2.49-.09-5.51,1.3-7.73a8,8,0,0,1,1.46-1.43c2.11-2-.07-5.82-2.87-5a16.08,16.08,0,0,0-9.41,7.78C151.36,49.12,159.57,56,163.66,49.59Z" fill="#cfe217"></path><path d="M171.78,46.91c1.9-2.25.66-5.47,2.35-7.48a8,8,0,0,1,1.64-1.22c2.36-1.68.73-5.78-2.16-5.35a16.08,16.08,0,0,0-10.38,6.42C159.66,44.76,166.85,52.74,171.78,46.91Z" fill="#5d8035"></path><path d="M180.45,45c2.15-2,1.3-5.36,3.2-7.16a8,8,0,0,1,1.77-1c2.54-1.39,1.39-5.66-1.52-5.57a16.08,16.08,0,0,0-11.05,5.17C168.66,41.42,174.87,50.18,180.45,45Z" fill="#cfe217"></path><path d="M190,43.7c2.32-1.82,1.75-5.23,3.8-6.86A8,8,0,0,1,195.7,36c2.65-1.17,1.87-5.51-1-5.68a16.08,16.08,0,0,0-11.46,4.21C178.61,39.16,184,48.41,190,43.7Z" fill="#5d8035"></path><path d="M200.17,43.79c2.3-1.84,1.71-5.24,3.75-6.88a8,8,0,0,1,1.85-.88c2.64-1.19,1.83-5.53-1.08-5.67a16.08,16.08,0,0,0-11.43,4.29C188.69,39.33,194.2,48.55,200.17,43.79Z" fill="#cfe217"></path><path d="M208.65,43.75c2.49-1.57,2.29-5,4.5-6.42a8,8,0,0,1,1.93-.66c2.76-.89,2.44-5.29-.44-5.76a16.08,16.08,0,0,0-11.83,3C197.74,38,202.19,47.81,208.65,43.75Z" fill="#5d8035"></path><path d="M217.77,43.73c2.58-1.42,2.57-4.88,4.86-6.15a8,8,0,0,1,2-.55c2.81-.72,2.74-5.14-.11-5.77a16.08,16.08,0,0,0-12,2.3C207.22,37.39,211.09,47.41,217.77,43.73Z" fill="#cfe217"></path><path d="M227.57,46.41c2.39-1.72,2-5.15,4.09-6.68a8,8,0,0,1,1.89-.78c2.7-1.05,2.11-5.43-.79-5.72a16.08,16.08,0,0,0-11.63,3.71C216.33,41.37,221.36,50.86,227.57,46.41Z" fill="#5d8035"></path><path d="M235.56,51.61c2.41-1.7,2-5.13,4.15-6.65a8,8,0,0,1,1.89-.77c2.71-1,2.16-5.41-.75-5.72a16.08,16.08,0,0,0-11.66,3.61C224.36,46.48,229.32,56,235.56,51.61Z" fill="#cfe217"></path><path d="M293.32,150.64c1.36-2.61,4.81-2.69,6-5a8,8,0,0,0,.5-2c.66-2.82,5.07-2.86,5.77,0a16.08,16.08,0,0,1-2,12C299.89,161.05,289.79,157.41,293.32,150.64Z" fill="#cfe217"></path><path d="M292.31,142.28c1.36-2.61,4.81-2.69,6-5a8,8,0,0,0,.5-2c.66-2.82,5.07-2.86,5.77,0a16.08,16.08,0,0,1-2,12C298.89,152.68,288.79,149,292.31,142.28Z" fill="#5d8035"></path><path d="M291.73,133.46c1.36-2.61,4.81-2.69,6-5a8,8,0,0,0,.5-2c.66-2.82,5.07-2.86,5.77,0a16.08,16.08,0,0,1-2,12C298.31,143.87,288.21,140.23,291.73,133.46Z" fill="#cfe217"></path><path d="M291.76,125.21c1.19-2.69,4.64-3,5.71-5.37a8,8,0,0,0,.38-2c.48-2.86,4.88-3.17,5.76-.39a16.08,16.08,0,0,1-1.26,12.14C299,135.18,288.66,132.19,291.76,125.21Z" fill="#5d8035"></path><path d="M290.59,117.35c.85-2.82,4.23-3.53,5-6a8,8,0,0,0,.13-2c.12-2.9,4.45-3.75,5.67-1.1a16.08,16.08,0,0,1,.25,12.2C299,126.35,288.38,124.65,290.59,117.35Z" fill="#cfe217"></path><path d="M288.41,109.15c.57-2.89,3.86-3.94,4.38-6.5a8,8,0,0,0-.07-2c-.16-2.89,4.06-4.18,5.53-1.66a16.08,16.08,0,0,1,1.46,12.12C297.66,117.27,286.94,116.64,288.41,109.15Z" fill="#5d8035"></path><path d="M285.66,99.79c.85-2.82,4.23-3.53,5-6a8,8,0,0,0,.13-2c.12-2.9,4.45-3.75,5.67-1.1a16.08,16.08,0,0,1,.25,12.2C294.06,108.8,283.46,107.1,285.66,99.79Z" fill="#cfe217"></path><path d="M283.46,91.73c.57-2.89,3.86-3.94,4.38-6.5a8,8,0,0,0-.07-2c-.16-2.89,4.06-4.18,5.53-1.66a16.08,16.08,0,0,1,1.46,12.12C292.71,99.85,282,99.22,283.46,91.73Z" fill="#5d8035"></path><path d="M261.16,67.2l-8.63-5.7c-4-2.62-5.32-8.42-3-13h0c2.28-4.54,7.34-6.11,11.3-3.49l8.63,5.7c4,2.62,5.32,8.42,3,13h0C270.18,68.26,265.12,69.82,261.16,67.2Z" fill="#68e1fd"></path><path d="M256.28,43.81c-1.84-4.2-8.66-24-17.44-23.81-6.75.13-21.11,28.7-16.39,34.56,4,5,22.79,4.22,28,3.44C249.22,53,252.84,47.14,256.28,43.81Z" fill="#68e1fd"></path><path d="M266.74,68.57c1.84,4.2,10.55,22.5,16.59,21.54,8.14-1.3,20.31-27.78,15.59-33.64-4-5-21.14-2.86-26.36-2.08C273.8,59.34,270.18,65.24,266.74,68.57Z" fill="#68e1fd"></path><path d="M261.16,67.2l-8.63-5.7c-4-2.62-5.32-8.42-3-13h0c2.28-4.54,7.34-6.11,11.3-3.49l8.63,5.7c4,2.62,5.32,8.42,3,13h0C270.18,68.26,265.12,69.82,261.16,67.2Z" fill="#171918" opacity="0.23"></path><path d="M113.77,107a11.73,11.73,0,0,0-1.45-2.4,7.7,7.7,0,0,0-5-2.71l3.09,34.36,6.07-1.84Z" fill="#68e1fd"></path><path d="M120.53,135.24c-.23-1.19-2.76-36.16-6.81-40s-20.66-8.47-26.3-5.46-3.63,8.62.82,11.38,20.11-.18,22,2.06.21,33,.21,33Z" fill="#68e1fd"></path><path d="M113.77,107a11.73,11.73,0,0,0-1.45-2.4,7.7,7.7,0,0,0-5-2.71l3.09,34.36,6.07-1.84Z" fill="#171918" opacity="0.23"></path><path d="M131.46,196.85a137.14,137.14,0,0,0,13.93,4.89l1.33.4c-2.48-9.67-17.28-27.81-17.28-27.81a31.75,31.75,0,0,0,.78,19.1C130.68,194.72,131.09,195.85,131.46,196.85Z" fill="#ed647c"></path><path d="M126,178.17c-2.09,2.31-5,3.6-7.92,5a25.47,25.47,0,0,1-8.89,2.65c-2,.15-4.11-.14-5.43-1.73-5.08-6.12,11.11-10.38,11.11-10.38a15.48,15.48,0,0,1,.15-10.28c2-5.68,13.32-3.56,13.89.92.48,3.75.46,7.83-1.2,11.32A10.46,10.46,0,0,1,126,178.17Z" fill="#68e1fd"></path><path d="M126,178.17c-2.09,2.31-5,3.6-7.92,5a25.47,25.47,0,0,1-8.89,2.65c-2,.15-4.11-.14-5.43-1.73-5.08-6.12,11.11-10.38,11.11-10.38a15.48,15.48,0,0,1,.15-10.28c2-5.68,13.32-3.56,13.89.92.48,3.75.46,7.83-1.2,11.32A10.46,10.46,0,0,1,126,178.17Z" fill="#171918" opacity="0.23"></path><path d="M177.23,171.82c-2.87-7.79-9.5-14.11-17.75-15.78-4.44-.9-8.89-.81-12.94-3.1a19.46,19.46,0,0,1-8-8.83c-2.23-4.71-9.28-.7-7.05,4l0,.07-14.44,3.52c-4.9,5.76-3,13.6.1,19.72a49.48,49.48,0,0,0,3.61,5.92,15,15,0,0,1,2.58,5.2c.6,2.64.26,5.36,1.14,7.95a15.82,15.82,0,0,0,2.19,4.18c.1,0,.19.06.29.11a115.67,115.67,0,0,0,18.42,7c2.45.74,4.9,1.48,7.36,2.14a41.63,41.63,0,0,0,12.64-3.53c5.71-3.24,10.46-7.88,12.31-14.49A23,23,0,0,0,177.23,171.82Z" fill="#68e1fd"></path><circle cx="173.38" cy="155.06" r="10.77" transform="translate(-32.72 47.24) rotate(-14.19)" fill="#68e1fd"></circle><path d="M120.05,131.4c-8.9,2.12-19.26,10.43-18.52,20.48.88,11.82,15.82,14.42,24.9,11.09a32.61,32.61,0,0,0,6.75-3.39c4.74-3.14,8-8,7.37-13.84a17.37,17.37,0,0,0-8.26-12.87A16.45,16.45,0,0,0,120.05,131.4Z" fill="#68e1fd"></path><path d="M127,135a183.09,183.09,0,0,1,8.48-27.25c2.66-6.95,5.15-16.42,12.19-18.89,6-2.12,10.77,6.16,11.11,12.15.29,5.18-1.7,10.4-4,14.89-5.13,10-12.64,18.31-20,26.1l-1.58,1.67" fill="#68e1fd"></path><ellipse cx="116" cy="146.89" rx="3.38" ry="1.59" transform="translate(-51.4 230.62) rotate(-78.27)" fill="#171918"></ellipse><path d="M108.07,151c-.71,1.11-.16,2.77.36,3.86.76,1.58,2.21,1.24,3.11,0,.52-.71,1.32-2,.94-2.91a1.77,1.77,0,0,0-1.14-.89C110.56,150.83,108.65,150.1,108.07,151Z" fill="#171918" opacity="0.23"></path><ellipse cx="109.31" cy="144.39" rx="3.38" ry="1.59" transform="translate(-54.29 222.08) rotate(-78.27)" fill="#171918"></ellipse><path d="M163.61,205.86c.6-.2,1.19-.4,1.76-.61a.32.32,0,0,1,.13-.37c1-.69,2-1.49,3-2.18q.59-.5,1.22-1a36.82,36.82,0,0,1-1.16-6.19l-21.67,6.61C152.37,203.84,157.87,205.41,163.61,205.86Z" fill="#68e1fd"></path><path d="M141.84,200.62q1.77.57,3.55,1.11h0c1.41-.18,2.81-.29,4.11-.37a.93.93,0,0,0,.78-1.3.87.87,0,0,0-.09-1,26.19,26.19,0,0,1-6.34-17.45c.06-3.13.64-6.51,2.77-8.95s5.21-3.63,8.09-4.77c1-.41.61-2.1-.43-1.68-3.19,1.26-6.55,2.59-8.88,5.21a10.73,10.73,0,0,0-1.17,1.62,7.56,7.56,0,0,1-.63,1.25,17.11,17.11,0,0,0-1.38,5.4,27.75,27.75,0,0,0,6.27,20A40.89,40.89,0,0,0,141.84,200.62Z" fill="#171918"></path><path d="M170.21,195.13c-.32-1.07-2-.65-1.68.43,1,3.45.51,5.36-2.53,7.34a26.24,26.24,0,0,1-5.46,2.62c1.22.18,2.45.29,3.69.38a15.34,15.34,0,0,0,5.56-3.85C171.45,200,170.92,197.46,170.21,195.13Z" fill="#171918"></path><path d="M130.56,131.75l11.28-27.68s2.55-8.55,8.37-5.35c6.36,3.5-15.12,35.64-15.12,35.64Z" fill="#171918" opacity="0.23"></path><path d="M128,185a3.24,3.24,0,0,0,0-3,3.07,3.07,0,0,0-4.1-1.08,14,14,0,0,0-4.67,3.51l-.09.12c-3.53,1.83-7.48,4.19-4.8,7.79,1.71,2.3,4.78,2.21,7.15,1.16s5.08-2.05,6.16-4.65a2.51,2.51,0,0,0-.34-2.35A2.33,2.33,0,0,0,128,185Z" fill="#68e1fd"></path><path d="M139.5,173.23a.46.46,0,0,1,0-.08,10,10,0,0,0-2.86-4.61.66.66,0,0,0,0,.92c2.52,2.85,1.57,10.41.09,13.37-2,4-6.56,6-10.35,7.84A27.83,27.83,0,0,1,121,193c-3.37.8-8.85,0-5.76-5.08.86-1.41,3.42-2.78,4.75-3.77,1.62-1.21,3.29-2.35,5-3.47a.84.84,0,0,0,.18-1.15,11.16,11.16,0,0,1-1.08-9.09c.29-1-1.34-1.25-1.62-.25a13,13,0,0,0-.56,4.58c.09,1.19,1.3,3.43,1.2,4.45-.14,1.48-2.9,2.73-4.06,3.6a39.52,39.52,0,0,0-5.15,4.14c-2.74,2.9-.62,8.79,3.62,8.72,3.52-.06,7.77-2.56,10.81-4.12s6.28-3.06,8.42-5.66a14.33,14.33,0,0,0,2.93-9.07C139.62,175.78,139.62,174.51,139.5,173.23Z" fill="#171918"></path></svg>