<?xml version="1.0" encoding="utf-8"?>
<!-- Designed by Vexels.com - 2020 All Rights Reserved - https://vexels.com/terms-and-conditions/  -->
<svg version="1.1" id="Capa_1" xmlns="http://www.w3.org/2000/svg" xmlns:xlink="http://www.w3.org/1999/xlink" x="0px" y="0px"
	 viewBox="0 0 1200 1200" enable-background="new 0 0 1200 1200" xml:space="preserve">
<g>
	<path fill="none" d="M118.618,494.155c1.297,0.286,3.336,0.736,6.038,1.332c-19.218-5.386-31.539-9.386-39.37-12.333
		C92.621,486.689,103.425,490.804,118.618,494.155z"/>
	<polygon fill="none" points="499.207,373.161 499.197,373.153 499.207,373.164 	"/>
	<g>
		<path fill="#72684E" d="M182.413,881.474c-1.953,11.411,5.786,22.346,17.197,24.299c11.411,1.953,22.346-5.785,24.299-17.197
			l7.652-44.708c-12.612-9.908-25.11-19.96-37.566-30.064L182.413,881.474z"/>
		<path fill="#72684E" d="M1073.263,824.278l-18.255-37.838c-10.491,11.251-20.494,22.898-29.811,35.095l10.149,21.036
			c5.031,10.427,17.678,14.843,28.105,9.812C1073.878,847.352,1078.293,834.705,1073.263,824.278z"/>
		<path fill="#72684E" d="M637.592,904.25l-20.734,121.143c-1.953,11.411,5.786,22.346,17.197,24.299
			c11.411,1.953,22.345-5.786,24.299-17.197l12.892-75.322c-12.38-10.114-24.602-20.443-37.628-29.705L637.592,904.25z"/>
	</g>
	<path fill="#50357C" d="M1072.038,204.579l-54.024,248.261c0,0,74.691,59.868,69.616,99.446
		c13.188,47.714-397.067,68.042-397.067,68.042c-11.507-3.495-5.271,66.062-5.271,66.062S701.321,866.994,707,893.902
		c3.669,17.388,11.694,25.815,16.925,29.621c7.932,1.42,17.799,0.073,30.032-4.82c42.56-17.024,196.118-75.354,257.515-125.663
		l30.435-33.451C1087.449,699.676,1150,586.782,1150,427.548C1150,301.251,1118.815,204.579,1072.038,204.579z"/>
	<path fill="#775CAA" d="M1087.631,552.286l-534.283-87.05c-8.672,27.909-103.722,23.37-155.703,18.713
		c-11.223-0.979-19.095-1.869-21.396-2.142c-0.001,0-0.001,0-0.001,0c-7.596-0.844-12.097-1.44-12.097-1.44l-90.529-16.672
		c-74.587,2.499-147.682,2.834-162.065,2.834c-12.618,0-27.279,0.68-39.126,8.737c0,0-0.213,0.073-0.355,0.255
		c-0.496,0.634-0.121,2.614,13.211,7.633c7.831,2.948,20.151,6.948,39.37,12.333c34.907,9.782,92.616,24.147,187.843,45.155
		c249.147,54.963,357.976,75.891,375.486,79.202c1.724,0.326,2.578,0.484,2.578,0.484S1100.819,600,1087.631,552.286z"/>
	<g>
		<path fill="#5C4091" d="M707,893.902c-5.678-26.908-21.708-207.512-21.708-207.512s-6.235-69.557,5.271-66.062
			c0,0-128.917-24.724-378.064-79.686c-95.227-21.007-219.878-53.953-227.213-57.488c-13.333-5.019-13.707-6.999-13.211-7.633
			c-17.229,11.993-28.352,39.877-18.21,104.569c17.151,109.408,23.619,152.67,37.421,167.1c8.244,8.619,49.359,23.443,107.054,40.99
			l40.733,11.793l-0.044,0.255c123.412,35.694,294.674,78.582,398.562,104.023l0.22-1.285l41.019,9.89l-0.237,1.386
			c31.311,7.591,50.236,12.085,50.236,12.085s-2.04-0.719-4.904-2.803C718.694,919.717,710.669,911.291,707,893.902z"/>
		<path fill="#5C4091" d="M1058.006,204.579c0,0-539.491-54.573-586.268-54.573c-32.949,0-55.067,85.872-65.265,145.361l0.072,0.06
			c30.675,19.67,64.895,48.528,92.653,77.727l0.01,0.008l518.808,79.679l54.024-248.261H1058.006z"/>
	</g>
	<path fill="#402F60" d="M1018.014,452.84l-518.808-79.679l0.001,0.003c6.754,7.104,13.102,14.222,18.943,21.235
		c21.227,24.015,35.852,47.565,35.852,66.557c0,0.652-0.045,1.288-0.129,1.91c-0.105,0.816-0.288,1.603-0.526,2.37l534.283,87.05
		C1092.705,512.708,1018.014,452.84,1018.014,452.84z"/>
	<path fill="#EA4B4B" d="M381.302,280.981c0,0-38.981-10.915-90.435-10.915s-48.336,113.629-48.336,149.491
		s31.091,44.138,31.091,44.138l90.529,16.672c0,0,4.501,0.595,12.097,1.44c-12.177-1.449-19.266-8.126-23.312-18.886
		c-8.427-22.407-3.598-62.608-3.598-110.8C349.338,288.387,381.302,280.981,381.302,280.981z"/>
	<path fill="#D83030" d="M518.151,394.399c-5.841-7.013-12.189-14.131-18.943-21.235c-0.004-0.004-0.007-0.007-0.01-0.011
		c-27.758-29.198-61.978-58.056-92.653-77.727c-8.781-5.631-17.281-10.534-25.242-14.446c0,0-31.964,7.406-31.964,71.139
		c0,48.192-4.829,88.393,3.598,110.8c4.046,10.76,11.135,17.437,23.312,18.886c0.004,0,0.007,0.001,0.011,0.001
		c2.311,0.275,10.176,1.163,21.386,2.141c51.981,4.657,147.031,9.196,155.703-18.713c0.238-0.766,0.421-1.553,0.526-2.37
		c0.08-0.623,0.129-1.258,0.129-1.91C554.003,441.964,539.377,418.415,518.151,394.399z"/>
	<g>
		<path fill="#51452D" d="M198.283,788.162l-4.288,25.641c12.456,10.104,24.954,20.156,37.566,30.064v0l7.469-43.641l0.044-0.255
			l-40.733-11.793L198.283,788.162z"/>
		<path fill="#51452D" d="M1042.003,759.485l-0.096,0.105l-30.435,33.451l-0.015,0.016l13.739,28.478v0
			c9.317-12.197,19.32-23.845,29.811-35.095L1042.003,759.485z"/>
		<path fill="#51452D" d="M637.592,904.25l-3.974,23.219c13.025,9.261,25.247,19.591,37.628,29.705l7.347-42.933l0.237-1.386
			l-41.019-9.89L637.592,904.25z"/>
	</g>
</g>
</svg>
