<?xml version="1.0" encoding="utf-8"?>
<!-- Designed by Vexels.com - 2020 All Rights Reserved - https://vexels.com/terms-and-conditions/  -->
<svg version="1.1" id="Capa_1" xmlns="http://www.w3.org/2000/svg" xmlns:xlink="http://www.w3.org/1999/xlink" x="0px" y="0px"
	 viewBox="0 0 1200 1200" enable-background="new 0 0 1200 1200" xml:space="preserve">
<g>
	<path fill="#D83030" d="M797.22,183.026c-24.527-15.329-47.972-58.632-145.692-58.632s-188.334,53.302-188.334,195.441
		c0,39.088,35.535,124.372-21.321,168.79c-56.856,44.418-119.74-28.925-217.312-64.444
		c-106.054-38.607-292.612,99.979-70.52,496.191c0,0,33.758,65.739,254.073,115.488c186.056,42.013,360.677,76.4,415.756-37.312
		c0,0,183.004-21.201,239.859-170.567c56.856-149.365-52.586-167.013,19.544-293.161c62.865-109.944,110.623-242.084-5.33-319.813
		C929.518,115.51,868.29,227.445,797.22,183.026z"/>
	<path fill="#EA4B4B" d="M669.336,704.713c-70.046,32.633-356.974-82.534-356.974-82.534s-65.112-33.289-65.112,15.953
		c0,60.625,23.997,69.632,190.25,122.433C632.281,822.426,669.336,704.713,669.336,704.713"/>
	<g>
		<path fill="#B22222" d="M1131.399,271.764c-78.8-96.678-71.21,58.11-77.189,145.624c-3.473,50.827-35.148,98.34-52.879,119.75
			c-12.057,14.558-24.762,24.086-44.139,27.443c-25.157,4.359-34.245-4.934-53.366-16.467
			c-75.34-45.443-135.869-12.535-184.001,40.175c-30.886,33.824-52.834,116.424-50.489,116.424
			c60.185-100.864,103.953-152.869,151.319-152.912c28.29-0.026,60.458,8.18,80.218,27.76c27.67,26.325,21.303,67.276,8.282,126.329
			c-26.795,121.517-85.283,292.657-85.283,292.657c181.172-32.238,216.208-124.706,245.873-187.834
			c29.665-63.128-4.814-148.113-11.975-189.734c-7.161-41.621,48.53-111.226,73.63-188.117
			C1162.818,336.612,1148.581,292.845,1131.399,271.764z"/>
		<path fill="#B22222" d="M669.336,704.713C666.82,708.935,673.919,704.713,669.336,704.713L669.336,704.713z"/>
		<path fill="#B22222" d="M437.799,491.58c0,0-12.023,11.462-36.402,10.887c-53.484-1.262-162.395-93.288-213.672-84.486
			c0,0,118.993-6.197,67.566,198.426c0,0,16.755-9.527,57.071,5.772c61.736,23.427,163.789,56.66,163.789,56.66
			C553.278,523.777,470.713,465.363,437.799,491.58z"/>
	</g>
	<path fill="#B22222" d="M762.677,384.87c-11.379,0-20.604,9.225-20.604,20.604c0,1.423,0.145,2.813,0.419,4.155
		c3.448-2.597,7.722-4.155,12.371-4.155c9.956,0,18.262,7.061,20.184,16.448c4.991-3.76,8.233-9.718,8.233-16.448
		C783.281,394.095,774.056,384.87,762.677,384.87z"/>
</g>
</svg>
